<mxfile host="app.diagrams.net" modified="2023-03-24T06:39:38.199Z" agent="Mozilla/5.0 (Windows NT 10.0; Win64; x64) AppleWebKit/537.36 (KHTML, like Gecko) Chrome/111.0.0.0 Safari/537.36 Edg/111.0.1661.51" etag="w38Efi0uB0f6brg3cMEy" version="21.1.0" type="device">
  <diagram name="Страница 1" id="-UDLXVlHsmjT1BN0IUUa">
    <mxGraphModel dx="1434" dy="788" grid="1" gridSize="10" guides="1" tooltips="1" connect="1" arrows="1" fold="1" page="1" pageScale="1" pageWidth="827" pageHeight="1169" math="0" shadow="0">
      <root>
        <mxCell id="0" />
        <mxCell id="1" parent="0" />
        <mxCell id="YJq_SiGPhTVSmtWh30oT-8" style="edgeStyle=orthogonalEdgeStyle;rounded=0;orthogonalLoop=1;jettySize=auto;html=1;exitX=0.5;exitY=1;exitDx=0;exitDy=0;entryX=0;entryY=0.5;entryDx=0;entryDy=0;" parent="1" source="YJq_SiGPhTVSmtWh30oT-1" target="YJq_SiGPhTVSmtWh30oT-4" edge="1">
          <mxGeometry relative="1" as="geometry" />
        </mxCell>
        <mxCell id="YJq_SiGPhTVSmtWh30oT-9" style="edgeStyle=orthogonalEdgeStyle;rounded=0;orthogonalLoop=1;jettySize=auto;html=1;exitX=0.5;exitY=1;exitDx=0;exitDy=0;entryX=0;entryY=0.5;entryDx=0;entryDy=0;" parent="1" source="YJq_SiGPhTVSmtWh30oT-1" target="YJq_SiGPhTVSmtWh30oT-5" edge="1">
          <mxGeometry relative="1" as="geometry" />
        </mxCell>
        <mxCell id="YJq_SiGPhTVSmtWh30oT-10" style="edgeStyle=orthogonalEdgeStyle;rounded=0;orthogonalLoop=1;jettySize=auto;html=1;exitX=0.5;exitY=1;exitDx=0;exitDy=0;entryX=0;entryY=0.5;entryDx=0;entryDy=0;" parent="1" source="YJq_SiGPhTVSmtWh30oT-1" target="YJq_SiGPhTVSmtWh30oT-6" edge="1">
          <mxGeometry relative="1" as="geometry" />
        </mxCell>
        <mxCell id="YJq_SiGPhTVSmtWh30oT-11" style="edgeStyle=orthogonalEdgeStyle;rounded=0;orthogonalLoop=1;jettySize=auto;html=1;exitX=0.5;exitY=1;exitDx=0;exitDy=0;entryX=0;entryY=0.5;entryDx=0;entryDy=0;" parent="1" source="YJq_SiGPhTVSmtWh30oT-1" target="YJq_SiGPhTVSmtWh30oT-7" edge="1">
          <mxGeometry relative="1" as="geometry" />
        </mxCell>
        <mxCell id="YJq_SiGPhTVSmtWh30oT-27" style="edgeStyle=orthogonalEdgeStyle;rounded=0;orthogonalLoop=1;jettySize=auto;html=1;exitX=0.5;exitY=0;exitDx=0;exitDy=0;entryX=0.5;entryY=1;entryDx=0;entryDy=0;" parent="1" source="YJq_SiGPhTVSmtWh30oT-1" target="YJq_SiGPhTVSmtWh30oT-2" edge="1">
          <mxGeometry relative="1" as="geometry" />
        </mxCell>
        <mxCell id="YJq_SiGPhTVSmtWh30oT-1" value="MainWindow" style="rounded=0;whiteSpace=wrap;html=1;" parent="1" vertex="1">
          <mxGeometry x="530" y="440" width="120" height="60" as="geometry" />
        </mxCell>
        <mxCell id="YJq_SiGPhTVSmtWh30oT-12" style="edgeStyle=orthogonalEdgeStyle;rounded=0;orthogonalLoop=1;jettySize=auto;html=1;exitX=0.5;exitY=1;exitDx=0;exitDy=0;entryX=0.5;entryY=0;entryDx=0;entryDy=0;" parent="1" source="YJq_SiGPhTVSmtWh30oT-2" target="YJq_SiGPhTVSmtWh30oT-1" edge="1">
          <mxGeometry relative="1" as="geometry" />
        </mxCell>
        <mxCell id="YJq_SiGPhTVSmtWh30oT-15" style="edgeStyle=orthogonalEdgeStyle;rounded=0;orthogonalLoop=1;jettySize=auto;html=1;exitX=0;exitY=0.5;exitDx=0;exitDy=0;entryX=1;entryY=0.5;entryDx=0;entryDy=0;" parent="1" source="YJq_SiGPhTVSmtWh30oT-2" target="YJq_SiGPhTVSmtWh30oT-14" edge="1">
          <mxGeometry relative="1" as="geometry" />
        </mxCell>
        <mxCell id="YJq_SiGPhTVSmtWh30oT-16" style="edgeStyle=orthogonalEdgeStyle;rounded=0;orthogonalLoop=1;jettySize=auto;html=1;exitX=0;exitY=0.5;exitDx=0;exitDy=0;entryX=1;entryY=0.5;entryDx=0;entryDy=0;" parent="1" source="YJq_SiGPhTVSmtWh30oT-2" target="YJq_SiGPhTVSmtWh30oT-3" edge="1">
          <mxGeometry relative="1" as="geometry" />
        </mxCell>
        <mxCell id="YJq_SiGPhTVSmtWh30oT-2" value="MainWindowViewModel" style="rounded=0;whiteSpace=wrap;html=1;" parent="1" vertex="1">
          <mxGeometry x="505" y="350" width="170" height="60" as="geometry" />
        </mxCell>
        <mxCell id="YJq_SiGPhTVSmtWh30oT-19" style="edgeStyle=orthogonalEdgeStyle;rounded=0;orthogonalLoop=1;jettySize=auto;html=1;exitX=0;exitY=0.5;exitDx=0;exitDy=0;entryX=1;entryY=0.5;entryDx=0;entryDy=0;" parent="1" source="YJq_SiGPhTVSmtWh30oT-3" target="YJq_SiGPhTVSmtWh30oT-17" edge="1">
          <mxGeometry relative="1" as="geometry">
            <mxPoint x="290" y="370" as="targetPoint" />
          </mxGeometry>
        </mxCell>
        <mxCell id="YJq_SiGPhTVSmtWh30oT-20" style="edgeStyle=orthogonalEdgeStyle;rounded=0;orthogonalLoop=1;jettySize=auto;html=1;exitX=0;exitY=0.5;exitDx=0;exitDy=0;entryX=1;entryY=0.5;entryDx=0;entryDy=0;" parent="1" source="YJq_SiGPhTVSmtWh30oT-3" target="YJq_SiGPhTVSmtWh30oT-18" edge="1">
          <mxGeometry relative="1" as="geometry" />
        </mxCell>
        <mxCell id="YJq_SiGPhTVSmtWh30oT-28" style="edgeStyle=orthogonalEdgeStyle;rounded=0;orthogonalLoop=1;jettySize=auto;html=1;exitX=1;exitY=0.5;exitDx=0;exitDy=0;entryX=0;entryY=0.5;entryDx=0;entryDy=0;" parent="1" source="YJq_SiGPhTVSmtWh30oT-3" target="YJq_SiGPhTVSmtWh30oT-2" edge="1">
          <mxGeometry relative="1" as="geometry" />
        </mxCell>
        <mxCell id="YJq_SiGPhTVSmtWh30oT-3" value="ApiClient" style="rounded=0;whiteSpace=wrap;html=1;" parent="1" vertex="1">
          <mxGeometry x="340" y="320" width="109" height="60" as="geometry" />
        </mxCell>
        <mxCell id="YJq_SiGPhTVSmtWh30oT-26" style="edgeStyle=orthogonalEdgeStyle;rounded=0;orthogonalLoop=1;jettySize=auto;html=1;exitX=0;exitY=0.5;exitDx=0;exitDy=0;entryX=0.5;entryY=1;entryDx=0;entryDy=0;" parent="1" source="YJq_SiGPhTVSmtWh30oT-4" target="YJq_SiGPhTVSmtWh30oT-1" edge="1">
          <mxGeometry relative="1" as="geometry" />
        </mxCell>
        <mxCell id="YJq_SiGPhTVSmtWh30oT-4" value="EasyData" style="rounded=0;whiteSpace=wrap;html=1;" parent="1" vertex="1">
          <mxGeometry x="640" y="525" width="120" height="60" as="geometry" />
        </mxCell>
        <mxCell id="YJq_SiGPhTVSmtWh30oT-5" value="Backup/Restore" style="rounded=0;whiteSpace=wrap;html=1;" parent="1" vertex="1">
          <mxGeometry x="640" y="600" width="120" height="60" as="geometry" />
        </mxCell>
        <mxCell id="YJq_SiGPhTVSmtWh30oT-6" value="Export to CSV" style="rounded=0;whiteSpace=wrap;html=1;" parent="1" vertex="1">
          <mxGeometry x="640" y="670" width="120" height="60" as="geometry" />
        </mxCell>
        <mxCell id="YJq_SiGPhTVSmtWh30oT-7" value="Diagrams" style="rounded=0;whiteSpace=wrap;html=1;" parent="1" vertex="1">
          <mxGeometry x="640" y="740" width="120" height="60" as="geometry" />
        </mxCell>
        <mxCell id="YJq_SiGPhTVSmtWh30oT-14" value="DatabaseService" style="rounded=0;whiteSpace=wrap;html=1;" parent="1" vertex="1">
          <mxGeometry x="340" y="400" width="109" height="60" as="geometry" />
        </mxCell>
        <mxCell id="YJq_SiGPhTVSmtWh30oT-25" style="edgeStyle=orthogonalEdgeStyle;rounded=0;orthogonalLoop=1;jettySize=auto;html=1;exitX=1;exitY=0.5;exitDx=0;exitDy=0;entryX=0;entryY=0.5;entryDx=0;entryDy=0;" parent="1" source="YJq_SiGPhTVSmtWh30oT-17" target="YJq_SiGPhTVSmtWh30oT-3" edge="1">
          <mxGeometry relative="1" as="geometry" />
        </mxCell>
        <mxCell id="YJq_SiGPhTVSmtWh30oT-17" value="HomeController" style="rounded=0;whiteSpace=wrap;html=1;" parent="1" vertex="1">
          <mxGeometry x="180" y="370" width="109" height="60" as="geometry" />
        </mxCell>
        <mxCell id="YJq_SiGPhTVSmtWh30oT-24" style="edgeStyle=orthogonalEdgeStyle;rounded=0;orthogonalLoop=1;jettySize=auto;html=1;exitX=0;exitY=0.5;exitDx=0;exitDy=0;" parent="1" source="YJq_SiGPhTVSmtWh30oT-18" edge="1">
          <mxGeometry relative="1" as="geometry">
            <mxPoint x="140" y="310" as="targetPoint" />
          </mxGeometry>
        </mxCell>
        <mxCell id="YJq_SiGPhTVSmtWh30oT-18" value="ApiController" style="rounded=0;whiteSpace=wrap;html=1;" parent="1" vertex="1">
          <mxGeometry x="180" y="280" width="109" height="60" as="geometry" />
        </mxCell>
        <mxCell id="YJq_SiGPhTVSmtWh30oT-22" style="edgeStyle=orthogonalEdgeStyle;rounded=0;orthogonalLoop=1;jettySize=auto;html=1;exitX=1;exitY=0.5;exitDx=0;exitDy=0;entryX=0;entryY=0.5;entryDx=0;entryDy=0;" parent="1" source="YJq_SiGPhTVSmtWh30oT-21" target="YJq_SiGPhTVSmtWh30oT-17" edge="1">
          <mxGeometry relative="1" as="geometry" />
        </mxCell>
        <mxCell id="YJq_SiGPhTVSmtWh30oT-21" value="EasyData" style="rounded=0;whiteSpace=wrap;html=1;" parent="1" vertex="1">
          <mxGeometry x="30" y="370" width="109" height="60" as="geometry" />
        </mxCell>
        <mxCell id="YJq_SiGPhTVSmtWh30oT-23" value="Export to CSV" style="rounded=0;whiteSpace=wrap;html=1;" parent="1" vertex="1">
          <mxGeometry x="30" y="280" width="109" height="60" as="geometry" />
        </mxCell>
        <mxCell id="YJq_SiGPhTVSmtWh30oT-29" style="edgeStyle=orthogonalEdgeStyle;rounded=0;orthogonalLoop=1;jettySize=auto;html=1;exitX=0.5;exitY=1;exitDx=0;exitDy=0;entryX=0;entryY=0.5;entryDx=0;entryDy=0;" parent="1" source="YJq_SiGPhTVSmtWh30oT-34" target="YJq_SiGPhTVSmtWh30oT-56" edge="1">
          <mxGeometry relative="1" as="geometry">
            <mxPoint x="1740" y="545" as="targetPoint" />
          </mxGeometry>
        </mxCell>
        <mxCell id="YJq_SiGPhTVSmtWh30oT-30" style="edgeStyle=orthogonalEdgeStyle;rounded=0;orthogonalLoop=1;jettySize=auto;html=1;exitX=0.5;exitY=1;exitDx=0;exitDy=0;entryX=0;entryY=0.5;entryDx=0;entryDy=0;" parent="1" source="YJq_SiGPhTVSmtWh30oT-34" target="YJq_SiGPhTVSmtWh30oT-45" edge="1">
          <mxGeometry relative="1" as="geometry" />
        </mxCell>
        <mxCell id="YJq_SiGPhTVSmtWh30oT-31" style="edgeStyle=orthogonalEdgeStyle;rounded=0;orthogonalLoop=1;jettySize=auto;html=1;exitX=0.5;exitY=1;exitDx=0;exitDy=0;entryX=0;entryY=0.5;entryDx=0;entryDy=0;" parent="1" source="YJq_SiGPhTVSmtWh30oT-34" target="YJq_SiGPhTVSmtWh30oT-46" edge="1">
          <mxGeometry relative="1" as="geometry" />
        </mxCell>
        <mxCell id="YJq_SiGPhTVSmtWh30oT-32" style="edgeStyle=orthogonalEdgeStyle;rounded=0;orthogonalLoop=1;jettySize=auto;html=1;exitX=0.5;exitY=1;exitDx=0;exitDy=0;entryX=0;entryY=0.5;entryDx=0;entryDy=0;" parent="1" source="YJq_SiGPhTVSmtWh30oT-34" target="YJq_SiGPhTVSmtWh30oT-47" edge="1">
          <mxGeometry relative="1" as="geometry" />
        </mxCell>
        <mxCell id="YJq_SiGPhTVSmtWh30oT-33" style="edgeStyle=orthogonalEdgeStyle;rounded=0;orthogonalLoop=1;jettySize=auto;html=1;exitX=0.5;exitY=0;exitDx=0;exitDy=0;entryX=0.5;entryY=1;entryDx=0;entryDy=0;" parent="1" source="YJq_SiGPhTVSmtWh30oT-34" target="YJq_SiGPhTVSmtWh30oT-38" edge="1">
          <mxGeometry relative="1" as="geometry" />
        </mxCell>
        <mxCell id="YJq_SiGPhTVSmtWh30oT-34" value="MainWindow" style="rounded=0;whiteSpace=wrap;html=1;" parent="1" vertex="1">
          <mxGeometry x="1630" y="430" width="120" height="60" as="geometry" />
        </mxCell>
        <mxCell id="YJq_SiGPhTVSmtWh30oT-35" style="edgeStyle=orthogonalEdgeStyle;rounded=0;orthogonalLoop=1;jettySize=auto;html=1;exitX=0.5;exitY=1;exitDx=0;exitDy=0;entryX=0.5;entryY=0;entryDx=0;entryDy=0;" parent="1" source="YJq_SiGPhTVSmtWh30oT-38" target="YJq_SiGPhTVSmtWh30oT-34" edge="1">
          <mxGeometry relative="1" as="geometry" />
        </mxCell>
        <mxCell id="YJq_SiGPhTVSmtWh30oT-36" style="edgeStyle=orthogonalEdgeStyle;rounded=0;orthogonalLoop=1;jettySize=auto;html=1;exitX=0;exitY=0.5;exitDx=0;exitDy=0;entryX=1;entryY=0.5;entryDx=0;entryDy=0;" parent="1" source="YJq_SiGPhTVSmtWh30oT-38" target="YJq_SiGPhTVSmtWh30oT-48" edge="1">
          <mxGeometry relative="1" as="geometry" />
        </mxCell>
        <mxCell id="YJq_SiGPhTVSmtWh30oT-37" style="edgeStyle=orthogonalEdgeStyle;rounded=0;orthogonalLoop=1;jettySize=auto;html=1;exitX=0;exitY=0.5;exitDx=0;exitDy=0;entryX=1;entryY=0.5;entryDx=0;entryDy=0;" parent="1" source="YJq_SiGPhTVSmtWh30oT-38" target="YJq_SiGPhTVSmtWh30oT-42" edge="1">
          <mxGeometry relative="1" as="geometry" />
        </mxCell>
        <mxCell id="YJq_SiGPhTVSmtWh30oT-38" value="MainWindowViewModel" style="rounded=0;whiteSpace=wrap;html=1;" parent="1" vertex="1">
          <mxGeometry x="1605" y="340" width="170" height="60" as="geometry" />
        </mxCell>
        <mxCell id="YJq_SiGPhTVSmtWh30oT-39" style="edgeStyle=orthogonalEdgeStyle;rounded=0;orthogonalLoop=1;jettySize=auto;html=1;exitX=0;exitY=0.5;exitDx=0;exitDy=0;entryX=1;entryY=0.5;entryDx=0;entryDy=0;" parent="1" source="YJq_SiGPhTVSmtWh30oT-42" target="YJq_SiGPhTVSmtWh30oT-50" edge="1">
          <mxGeometry relative="1" as="geometry">
            <mxPoint x="1390" y="360" as="targetPoint" />
          </mxGeometry>
        </mxCell>
        <mxCell id="YJq_SiGPhTVSmtWh30oT-40" style="edgeStyle=orthogonalEdgeStyle;rounded=0;orthogonalLoop=1;jettySize=auto;html=1;exitX=0;exitY=0.5;exitDx=0;exitDy=0;entryX=1;entryY=0.5;entryDx=0;entryDy=0;" parent="1" source="YJq_SiGPhTVSmtWh30oT-42" target="YJq_SiGPhTVSmtWh30oT-52" edge="1">
          <mxGeometry relative="1" as="geometry" />
        </mxCell>
        <mxCell id="YJq_SiGPhTVSmtWh30oT-41" style="edgeStyle=orthogonalEdgeStyle;rounded=0;orthogonalLoop=1;jettySize=auto;html=1;exitX=1;exitY=0.5;exitDx=0;exitDy=0;entryX=0;entryY=0.5;entryDx=0;entryDy=0;" parent="1" source="YJq_SiGPhTVSmtWh30oT-42" target="YJq_SiGPhTVSmtWh30oT-38" edge="1">
          <mxGeometry relative="1" as="geometry" />
        </mxCell>
        <mxCell id="YJq_SiGPhTVSmtWh30oT-42" value="ApiClient" style="rounded=0;whiteSpace=wrap;html=1;" parent="1" vertex="1">
          <mxGeometry x="1440" y="310" width="109" height="60" as="geometry" />
        </mxCell>
        <mxCell id="YJq_SiGPhTVSmtWh30oT-43" style="edgeStyle=orthogonalEdgeStyle;rounded=0;orthogonalLoop=1;jettySize=auto;html=1;exitX=0;exitY=0.5;exitDx=0;exitDy=0;entryX=0.5;entryY=1;entryDx=0;entryDy=0;" parent="1" source="YJq_SiGPhTVSmtWh30oT-56" target="YJq_SiGPhTVSmtWh30oT-34" edge="1">
          <mxGeometry relative="1" as="geometry">
            <mxPoint x="1740" y="545" as="sourcePoint" />
          </mxGeometry>
        </mxCell>
        <mxCell id="YJq_SiGPhTVSmtWh30oT-45" value="&lt;p class=&quot;MsoListParagraphCxSpFirst&quot;&gt;Проверка создания резервной копии базы данных;&lt;/p&gt;&lt;span style=&quot;background-color: initial;&quot;&gt;Проверка восстановления базы из резервной копии;&lt;/span&gt;" style="rounded=0;whiteSpace=wrap;html=1;" parent="1" vertex="1">
          <mxGeometry x="1809" y="570" width="330" height="70" as="geometry" />
        </mxCell>
        <mxCell id="YJq_SiGPhTVSmtWh30oT-46" value="Проверка экпорта данных в CVS" style="rounded=0;whiteSpace=wrap;html=1;" parent="1" vertex="1">
          <mxGeometry x="1809" y="660" width="120" height="60" as="geometry" />
        </mxCell>
        <mxCell id="YJq_SiGPhTVSmtWh30oT-47" value="&lt;p class=&quot;MsoListParagraphCxSpFirst&quot;&gt;·Проверка вывода граффика показываюшего количество полетов&lt;br&gt;в города;&lt;/p&gt;&lt;span style=&quot;background-color: initial;&quot;&gt;Проверка вывода граффика показывающего число полетов в&lt;/span&gt;&lt;br&gt;&lt;p class=&quot;MsoListParagraphCxSpLast&quot;&gt;месяц на протяжении года.&lt;/p&gt;" style="rounded=0;whiteSpace=wrap;html=1;" parent="1" vertex="1">
          <mxGeometry x="1740" y="760" width="320" height="130" as="geometry" />
        </mxCell>
        <mxCell id="YJq_SiGPhTVSmtWh30oT-48" value="DatabaseService" style="rounded=0;whiteSpace=wrap;html=1;" parent="1" vertex="1">
          <mxGeometry x="1440" y="390" width="109" height="60" as="geometry" />
        </mxCell>
        <mxCell id="YJq_SiGPhTVSmtWh30oT-49" style="edgeStyle=orthogonalEdgeStyle;rounded=0;orthogonalLoop=1;jettySize=auto;html=1;exitX=1;exitY=0.5;exitDx=0;exitDy=0;entryX=0;entryY=0.5;entryDx=0;entryDy=0;" parent="1" source="YJq_SiGPhTVSmtWh30oT-50" target="YJq_SiGPhTVSmtWh30oT-42" edge="1">
          <mxGeometry relative="1" as="geometry" />
        </mxCell>
        <mxCell id="YJq_SiGPhTVSmtWh30oT-50" value="HomeController" style="rounded=0;whiteSpace=wrap;html=1;" parent="1" vertex="1">
          <mxGeometry x="1280" y="360" width="109" height="60" as="geometry" />
        </mxCell>
        <mxCell id="YJq_SiGPhTVSmtWh30oT-51" style="edgeStyle=orthogonalEdgeStyle;rounded=0;orthogonalLoop=1;jettySize=auto;html=1;exitX=0;exitY=0.5;exitDx=0;exitDy=0;" parent="1" source="YJq_SiGPhTVSmtWh30oT-52" edge="1">
          <mxGeometry relative="1" as="geometry">
            <mxPoint x="1240" y="300" as="targetPoint" />
          </mxGeometry>
        </mxCell>
        <mxCell id="YJq_SiGPhTVSmtWh30oT-52" value="ApiController" style="rounded=0;whiteSpace=wrap;html=1;" parent="1" vertex="1">
          <mxGeometry x="1280" y="270" width="109" height="60" as="geometry" />
        </mxCell>
        <mxCell id="YJq_SiGPhTVSmtWh30oT-53" style="edgeStyle=orthogonalEdgeStyle;rounded=0;orthogonalLoop=1;jettySize=auto;html=1;exitX=1;exitY=0.5;exitDx=0;exitDy=0;entryX=0;entryY=0.5;entryDx=0;entryDy=0;" parent="1" source="YJq_SiGPhTVSmtWh30oT-54" target="YJq_SiGPhTVSmtWh30oT-50" edge="1">
          <mxGeometry relative="1" as="geometry" />
        </mxCell>
        <mxCell id="YJq_SiGPhTVSmtWh30oT-54" value="&lt;p class=&quot;MsoListParagraphCxSpFirst&quot;&gt;Проверка создания объекта в базе данных;&lt;/p&gt;Проверка р&lt;span style=&quot;background-color: initial;&quot;&gt;едактирования объекта в базе данных;&lt;/span&gt;&lt;br&gt;Проверка у&lt;span style=&quot;background-color: initial;&quot;&gt;даления объекта из базы данных;&lt;/span&gt;&lt;br&gt;Проверка в&lt;span style=&quot;background-color: initial;&quot;&gt;ывода информации об объектах из базы данных;&lt;/span&gt;" style="rounded=0;whiteSpace=wrap;html=1;" parent="1" vertex="1">
          <mxGeometry x="920" y="425" width="309" height="160" as="geometry" />
        </mxCell>
        <mxCell id="YJq_SiGPhTVSmtWh30oT-55" value="Экпорт данных в CVS" style="rounded=0;whiteSpace=wrap;html=1;" parent="1" vertex="1">
          <mxGeometry x="1130" y="270" width="109" height="60" as="geometry" />
        </mxCell>
        <mxCell id="YJq_SiGPhTVSmtWh30oT-56" value="&lt;p style=&quot;border-color: var(--border-color);&quot; class=&quot;MsoListParagraphCxSpFirst&quot;&gt;Проверка создания объекта в базе данных;&lt;/p&gt;&lt;p class=&quot;MsoListParagraphCxSpFirst&quot;&gt;Проверка редактирования объекта в базе данных;&lt;br style=&quot;border-color: var(--border-color);&quot;&gt;Проверка у&lt;span style=&quot;border-color: var(--border-color); background-color: initial;&quot;&gt;даления объекта из базы данных;&lt;/span&gt;&lt;br style=&quot;border-color: var(--border-color);&quot;&gt;Проверка в&lt;span style=&quot;border-color: var(--border-color); background-color: initial;&quot;&gt;ывода информации об объектах из базы данных;&lt;/span&gt;&lt;br&gt;&lt;/p&gt;" style="rounded=0;whiteSpace=wrap;html=1;" parent="1" vertex="1">
          <mxGeometry x="1830" y="400" width="309" height="160" as="geometry" />
        </mxCell>
      </root>
    </mxGraphModel>
  </diagram>
</mxfile>
